PathFileType	4	(X/Y/Z)	/home/nbianco/projects/addbio/data/HamnerRunning2013/Processed/subject20//results/MarkerData/run400.trc
DataRate	CameraRate	NumFrames	NumMarkers	Units	OrigDataRate	OrigDataStartFrame	OrigNumFrames
119.99	119.99	9	42	m	119.99	174	232
Frame#	Time	C7			CLAV			LACR			LASI			LCAL			LFAradius			LFAsuperior			LFAulna			LLEL			LMEL			LMT5			LPSI			LTB1			LTB2			LTB3			LTH1			LTH2			LTH3			LTOE			LUA1			LUA2			LUA3			RACR			RASI			RCAL			RFAradius			RFAsuperior			RFAulna			RLEL			RMEL			RMT5			RPSI			RTB1			RTB2			RTB3			RTH1			RTH2			RTH3			RTOE			RUA1			RUA2			RUA3		
		X1	Y1	Z1	X2	Y2	Z2	X3	Y3	Z3	X4	Y4	Z4	X5	Y5	Z5	X6	Y6	Z6	X7	Y7	Z7	X8	Y8	Z8	X9	Y9	Z9	X10	Y10	Z10	X11	Y11	Z11	X12	Y12	Z12	X13	Y13	Z13	X14	Y14	Z14	X15	Y15	Z15	X16	Y16	Z16	X17	Y17	Z17	X18	Y18	Z18	X19	Y19	Z19	X20	Y20	Z20	X21	Y21	Z21	X22	Y22	Z22	X23	Y23	Z23	X24	Y24	Z24	X25	Y25	Z25	X26	Y26	Z26	X27	Y27	Z27	X28	Y28	Z28	X29	Y29	Z29	X30	Y30	Z30	X31	Y31	Z31	X32	Y32	Z32	X33	Y33	Z33	X34	Y34	Z34	X35	Y35	Z35	X36	Y36	Z36	X37	Y37	Z37	X38	Y38	Z38	X39	Y39	Z39	X40	Y40	Z40	X41	Y41	Z41	X42	Y42	Z42

175	1.53333	0.695962	1.47297	-0.368546	0.820666	1.37086	-0.342878	0.719096	1.42801	-0.55686	0.739321	0.965787	-0.497692	0.449695	0.544542	-0.474263	0.723608	1.08028	-0.584236	0.602772	1.17746	-0.679767	0.685007	1.03793	-0.621073	0.541535	1.21843	-0.68854	0.493703	1.19663	-0.618401	0.47469	0.343762	-0.528748	0.563224	0.995995	-0.431019	0.786883	0.459819	-0.452827	0.679588	0.477104	-0.515942	0.596672	0.456922	-0.449266	0.732456	0.828281	-0.540312	0.840203	0.758755	-0.522916	0.842851	0.614201	-0.534114	0.498511	0.334401	-0.439096	0.661338	1.3764	-0.608072	0.581714	1.33843	-0.582113	0.609553	1.30259	-0.646719	0.718013	1.4099	-0.18034	0.714756	0.97569	-0.246264	0.337671	0.117163	-0.36883	0.879593	1.14877	-0.146068	0.731809	1.13874	-0.0651549	0.866684	1.08317	-0.129022	0.647383	1.13716	-0.0475727	0.611496	1.09836	-0.119736	0.515138	0.0626528	-0.282083	0.553902	1.0031	-0.344935	0.626131	0.336898	-0.335557	0.560245	0.294108	-0.285373	0.514085	0.196439	-0.362383	0.666119	0.791076	-0.215619	0.723778	0.670123	-0.248462	0.633972	0.547069	-0.255313	0.549649	0.0616623	-0.368914	0.690743	1.29815	-0.123421	0.712558	1.23347	-0.117363	0.61166	1.21046	-0.0964917
176	1.54167	0.696239	1.47853	-0.368077	0.82177	1.37709	-0.346902	0.714091	1.43504	-0.55667	0.742	0.973116	-0.495606	0.463553	0.517463	-0.471166	0.716352	1.09236	-0.588293	0.593227	1.18958	-0.679301	0.676773	1.04928	-0.622593	0.531964	1.22975	-0.686807	0.485964	1.20759	-0.615491	0.50929	0.321642	-0.530133	0.565581	1.00183	-0.430991	0.808284	0.464416	-0.451271	0.699552	0.472328	-0.514435	0.618331	0.444338	-0.44834	0.737936	0.837735	-0.539477	0.847064	0.771815	-0.520706	0.856165	0.628082	-0.533234	0.534246	0.312649	-0.440719	0.655035	1.38529	-0.607026	0.576122	1.34797	-0.579694	0.601569	1.31245	-0.645721	0.724282	1.41529	-0.180686	0.717041	0.979033	-0.246305	0.307161	0.124855	-0.367356	0.887769	1.16177	-0.158154	0.744695	1.14491	-0.0715645	0.87847	1.09539	-0.142189	0.661424	1.13963	-0.0505696	0.622635	1.10133	-0.122196	0.481507	0.0627509	-0.28248	0.556346	1.00836	-0.344451	0.597686	0.341344	-0.334884	0.530793	0.300027	-0.284744	0.484329	0.201667	-0.361344	0.660172	0.79401	-0.216488	0.709986	0.670707	-0.249873	0.612597	0.552196	-0.25642	0.517628	0.062569	-0.370477	0.700412	1.30178	-0.1249	0.723118	1.23732	-0.121033	0.623476	1.21315	-0.0949169
177	1.55	0.696319	1.48411	-0.367948	0.822715	1.38385	-0.350872	0.709601	1.44224	-0.556311	0.744627	0.980382	-0.493377	0.479577	0.488383	-0.467382	0.709533	1.10452	-0.592032	0.584779	1.20217	-0.678905	0.669412	1.06099	-0.624408	0.523564	1.24164	-0.685224	0.478761	1.21895	-0.612856	0.545253	0.299775	-0.531288	0.568251	1.00792	-0.431038	0.828614	0.468546	-0.450035	0.719437	0.466848	-0.513018	0.640582	0.430889	-0.447271	0.743875	0.847565	-0.538705	0.853519	0.784219	-0.518341	0.867838	0.641367	-0.532255	0.571678	0.291356	-0.441929	0.649525	1.39456	-0.605998	0.571216	1.358	-0.57742	0.59455	1.32274	-0.644729	0.73048	1.42122	-0.181405	0.720099	0.982744	-0.246214	0.278415	0.134807	-0.365401	0.894758	1.17495	-0.170405	0.757109	1.15197	-0.0775957	0.888681	1.10792	-0.155979	0.675305	1.14333	-0.0532489	0.633334	1.1054	-0.123949	0.448191	0.0630027	-0.283017	0.559395	1.01394	-0.343823	0.569683	0.348036	-0.334437	0.50267	0.30794	-0.283678	0.455606	0.208826	-0.359963	0.654502	0.797538	-0.217309	0.696527	0.672532	-0.251122	0.591842	0.559167	-0.257598	0.486339	0.0635004	-0.372639	0.710196	1.30623	-0.126401	0.733554	1.24196	-0.124981	0.635517	1.217	-0.0929146
178	1.55833	0.696325	1.48961	-0.368081	0.823414	1.39091	-0.354739	0.70568	1.44932	-0.555862	0.746985	0.987339	-0.491028	0.49825	0.457726	-0.463343	0.703267	1.11655	-0.595487	0.577209	1.21465	-0.67883	0.662868	1.07276	-0.626522	0.516085	1.2536	-0.68381	0.472043	1.23046	-0.610471	0.582322	0.278209	-0.532061	0.571169	1.0142	-0.43116	0.848042	0.472075	-0.449335	0.73914	0.460622	-0.511743	0.663842	0.416528	-0.446071	0.750229	0.857567	-0.538108	0.859605	0.796011	-0.516157	0.877814	0.653665	-0.531074	0.610505	0.270817	-0.442665	0.644861	1.40394	-0.605034	0.567029	1.3682	-0.575432	0.588506	1.33312	-0.643816	0.736399	1.42751	-0.18253	0.723658	0.986634	-0.245888	0.252059	0.146997	-0.363239	0.900545	1.18808	-0.182551	0.768919	1.15962	-0.0832429	0.897331	1.1206	-0.169878	0.68882	1.148	-0.0556359	0.64365	1.11033	-0.124975	0.415526	0.0635065	-0.283529	0.562788	1.01962	-0.343015	0.54264	0.357044	-0.333846	0.476102	0.317849	-0.281963	0.428497	0.217912	-0.357917	0.649113	0.801778	-0.217864	0.683714	0.675524	-0.252255	0.572039	0.567916	-0.258513	0.455342	0.0637596	-0.374225	0.719813	1.3114	-0.127938	0.743566	1.24725	-0.129133	0.64758	1.22177	-0.0906963
179	1.56667	0.696413	1.49497	-0.36836	0.823828	1.39808	-0.35848	0.702352	1.45603	-0.555419	0.749062	0.993881	-0.488723	0.51969	0.426018	-0.459331	0.697664	1.12825	-0.598758	0.570405	1.22669	-0.679163	0.657095	1.08435	-0.628904	0.509399	1.26528	-0.682625	0.465836	1.2419	-0.608431	0.620361	0.257031	-0.532296	0.574266	1.02061	-0.431309	0.866551	0.474872	-0.449271	0.758608	0.453657	-0.51069	0.688279	0.401439	-0.444827	0.756849	0.867473	-0.537586	0.865217	0.807162	-0.514394	0.886019	0.664665	-0.529683	0.650409	0.251228	-0.442974	0.64106	1.4131	-0.604159	0.563609	1.37823	-0.573848	0.583436	1.34329	-0.643089	0.741951	1.43398	-0.184004	0.727285	0.990514	-0.245506	0.228592	0.161352	-0.361152	0.905151	1.2009	-0.194315	0.780006	1.16765	-0.0885889	0.904534	1.13328	-0.183171	0.701795	1.15341	-0.0577665	0.653459	1.11583	-0.125256	0.383824	0.0644104	-0.283801	0.566316	1.02521	-0.342156	0.517311	0.368154	-0.332558	0.451099	0.329671	-0.279519	0.403771	0.228598	-0.354914	0.644104	0.806729	-0.218016	0.671644	0.679435	-0.253199	0.553324	0.578254	-0.258879	0.424489	0.0633017	-0.374567	0.729004	1.31716	-0.129502	0.752933	1.25302	-0.133337	0.659435	1.2272	-0.0884758
180	1.575	0.696666	1.50013	-0.368711	0.824015	1.40507	-0.362056	0.699617	1.46219	-0.555084	0.750977	1.00003	-0.486666	0.543679	0.393835	-0.455556	0.692775	1.13944	-0.601964	0.56434	1.23815	-0.679871	0.652073	1.09557	-0.631544	0.503495	1.27643	-0.681758	0.460212	1.25302	-0.606862	0.659388	0.236419	-0.531756	0.577436	1.02704	-0.431359	0.884043	0.476873	-0.449733	0.777858	0.445989	-0.509913	0.713742	0.386036	-0.443622	0.7634	0.876909	-0.536893	0.870227	0.817489	-0.51305	0.892326	0.674081	-0.528118	0.691093	0.232838	-0.442763	0.638074	1.42176	-0.603392	0.560949	1.38776	-0.572699	0.579297	1.35301	-0.642639	0.747135	1.44044	-0.185732	0.730583	0.994204	-0.245439	0.208263	0.17779	-0.359362	0.908613	1.21322	-0.205462	0.79027	1.17587	-0.0936292	0.910438	1.14574	-0.195272	0.714068	1.15931	-0.0596393	0.662565	1.12161	-0.124832	0.353148	0.0659524	-0.28366	0.569951	1.03058	-0.341455	0.494549	0.380786	-0.330037	0.42774	0.343155	-0.276416	0.382036	0.240333	-0.350874	0.639537	0.812238	-0.217796	0.660239	0.68401	-0.25365	0.53581	0.589801	-0.258554	0.394136	0.0630037	-0.373776	0.737578	1.32333	-0.131039	0.761564	1.25912	-0.137328	0.67083	1.23302	-0.0864215
181	1.58333	0.697088	1.50499	-0.369125	0.82413	1.41159	-0.365404	0.697459	1.46768	-0.554948	0.752857	1.00586	-0.485001	0.569844	0.361714	-0.452259	0.688583	1.14997	-0.6052	0.558998	1.24893	-0.680879	0.6478	1.10627	-0.63446	0.498382	1.28693	-0.681288	0.455236	1.2636	-0.605825	0.699517	0.216642	-0.530144	0.580575	1.03335	-0.431195	0.900391	0.478124	-0.450415	0.79693	0.43767	-0.509386	0.739861	0.370783	-0.44245	0.769392	0.885535	-0.535907	0.874508	0.826653	-0.511983	0.896574	0.681677	-0.526424	0.732265	0.215986	-0.441688	0.635792	1.4297	-0.602769	0.558957	1.39661	-0.57196	0.575994	1.36215	-0.642517	0.751975	1.4467	-0.187646	0.733397	0.997535	-0.245982	0.190976	0.196208	-0.35802	0.910959	1.22484	-0.215826	0.799647	1.18412	-0.0982194	0.915172	1.15771	-0.205918	0.725493	1.16548	-0.0611935	0.670833	1.12745	-0.123804	0.323153	0.0685224	-0.283095	0.573795	1.03571	-0.341038	0.474999	0.393953	-0.326079	0.406328	0.357698	-0.272911	0.363287	0.252501	-0.346084	0.635323	0.818085	-0.217348	0.64942	0.689095	-0.25316	0.519813	0.601936	-0.257608	0.364809	0.0642488	-0.372341	0.745433	1.3297	-0.132466	0.769488	1.26537	-0.140781	0.681522	1.23901	-0.0846066
182	1.59167	0.697645	1.50947	-0.369643	0.824361	1.41736	-0.368483	0.695832	1.47241	-0.55507	0.754743	1.01141	-0.483813	0.597816	0.330055	-0.44969	0.685048	1.15975	-0.608512	0.554342	1.25895	-0.682143	0.644274	1.11632	-0.637681	0.494012	1.29669	-0.681247	0.450936	1.27344	-0.605283	0.740806	0.198026	-0.527261	0.583617	1.03941	-0.430806	0.915409	0.478748	-0.450935	0.815813	0.428751	-0.509024	0.766213	0.356031	-0.441209	0.774285	0.893182	-0.534855	0.87789	0.83423	-0.511183	0.898675	0.687332	-0.524662	0.773604	0.201045	-0.439326	0.634085	1.43681	-0.602359	0.557483	1.40467	-0.571609	0.573387	1.37063	-0.642735	0.756457	1.4526	-0.189718	0.735844	1.00039	-0.247115	0.176246	0.21643	-0.357211	0.912224	1.2356	-0.2253	0.808106	1.19219	-0.102182	0.918825	1.16887	-0.215117	0.735963	1.17172	-0.0623361	0.678245	1.13318	-0.122299	0.293148	0.0727191	-0.282316	0.577843	1.04074	-0.340838	0.458772	0.406409	-0.321078	0.387279	0.372291	-0.269441	0.346753	0.264594	-0.341181	0.631299	0.824095	-0.216808	0.639327	0.694597	-0.251389	0.505939	0.613819	-0.256305	0.336613	0.0681629	-0.370621	0.752536	1.33605	-0.133713	0.776788	1.27157	-0.143445	0.691326	1.24499	-0.0830012
183	1.6	0.698308	1.5135	-0.370317	0.824839	1.42225	-0.371307	0.694655	1.47634	-0.555458	0.756568	1.01661	-0.483173	0.627269	0.299105	-0.447941	0.682153	1.16872	-0.611925	0.55032	1.2681	-0.683658	0.641495	1.12562	-0.641211	0.490293	1.30558	-0.681619	0.447329	1.28238	-0.605158	0.783054	0.180912	-0.52316	0.586517	1.04517	-0.430274	0.928826	0.478842	-0.45102	0.834368	0.419283	-0.508718	0.792399	0.341956	-0.439785	0.777656	0.899818	-0.534262	0.880136	0.839901	-0.510997	0.898713	0.6911	-0.522924	0.814719	0.188328	-0.435503	0.632849	1.44307	-0.602246	0.55639	1.41193	-0.571649	0.571341	1.37835	-0.643261	0.76052	1.45804	-0.191917	0.738144	1.00278	-0.248475	0.163245	0.238168	-0.356933	0.912492	1.24529	-0.233799	0.815607	1.19985	-0.105467	0.92146	1.17895	-0.222987	0.745412	1.17783	-0.0630063	0.684859	1.13871	-0.120423	0.262458	0.0793474	-0.281678	0.581791	1.04588	-0.340623	0.4454	0.417021	-0.315973	0.370861	0.385797	-0.266498	0.331226	0.276356	-0.336928	0.627441	0.830132	-0.216227	0.630458	0.700302	-0.248331	0.494966	0.624532	-0.254975	0.308937	0.0751352	-0.368747	0.758898	1.34217	-0.134758	0.783529	1.27754	-0.145246	0.700145	1.25082	-0.081523
